<svg version="1.1" id="Layer_1" xmlns="http://www.w3.org/2000/svg" xmlns:xlink="http://www.w3.org/1999/xlink" x="0px" y="0px"
	 width="100%" viewBox="0 0 54 54" enable-background="new 0 0 54 54" xml:space="preserve">
<path fill="#407194" opacity="1.000000" stroke="none" 
	d="
M1.000000,39.000000 
	C1.000000,26.376108 1.000000,13.752216 1.000000,1.064162 
	C18.896259,1.064162 36.792786,1.064162 55.000000,1.064162 
	C55.000000,13.352491 55.000000,25.707588 54.537014,38.530144 
	C49.437572,38.664894 44.801117,38.332180 40.091560,37.700794 
	C39.704140,36.656948 39.389824,35.911777 39.526505,35.106239 
	C42.470634,35.029125 45.009830,35.289097 47.438446,34.884796 
	C48.752270,34.666077 50.904316,33.342686 50.929184,32.467918 
	C51.186718,23.408817 51.087551,14.339576 51.087551,5.267504 
	C35.349171,5.267504 20.310440,5.267504 5.237527,5.267504 
	C5.237527,15.285178 5.237527,24.977873 5.237527,34.847099 
	C11.745466,34.847099 17.868313,34.847099 24.282616,35.061253 
	C24.704123,36.460777 24.834179,37.646152 24.501835,38.895782 
	C16.359625,38.973362 8.679812,38.986683 1.000000,39.000000 
z"/>
<path fill="#DCEAFC" opacity="1.000000" stroke="none" 
	d="
M40.164661,37.999466 
	C44.801117,38.332180 49.437572,38.664894 54.537014,38.998802 
	C55.000000,40.388889 55.000000,41.777779 54.531525,43.577065 
	C47.409416,44.009499 40.755783,44.031536 33.722809,43.885452 
	C29.528025,43.829590 25.712584,43.941849 21.435814,44.025963 
	C14.316325,43.998543 7.658163,43.999271 1.000000,44.000000 
	C1.000000,42.611111 1.000000,41.222221 1.000000,39.416668 
	C8.679812,38.986683 16.359625,38.973362 24.901363,38.944176 
	C29.589487,37.157925 32.993359,37.577995 35.785160,41.235321 
	C37.372669,40.062366 38.768665,39.030914 40.164661,37.999466 
z"/>
<path fill="#000000" opacity="1.000000" stroke="none" 
	d="
M1.000000,44.482956 
	C7.658163,43.999271 14.316325,43.998543 21.482990,44.354301 
	C22.051380,45.146843 22.111269,45.582901 22.022209,46.340611 
	C21.556433,47.739410 21.239603,48.816555 20.534904,49.936909 
	C16.646484,49.823326 14.820673,51.383698 15.000000,55.000000 
	C10.422078,55.000000 5.844157,55.000000 1.000000,55.000000 
	C1.000000,51.659866 1.000000,48.312889 1.000000,44.482956 
z"/>
<path fill="#000000" opacity="1.000000" stroke="none" 
	d="
M34.102142,44.053574 
	C40.755783,44.031536 47.409416,44.009499 54.531525,43.993729 
	C55.000000,47.599579 55.000000,51.199162 55.000000,55.000000 
	C50.650711,55.000000 46.299484,55.000000 41.473511,54.613106 
	C40.856209,50.274250 38.072281,49.935471 35.039757,49.538757 
	C34.614029,48.129604 34.220119,47.074924 33.905033,45.697540 
	C34.023285,44.934414 34.062714,44.493996 34.102142,44.053574 
z"/>
<path fill="#BED9FD" opacity="1.000000" stroke="none" 
	d="
M35.071575,49.893234 
	C38.072281,49.935471 40.856209,50.274250 40.999382,54.613106 
	C32.645767,55.000000 24.291536,55.000000 15.468653,55.000000 
	C14.820673,51.383698 16.646484,49.823326 20.830824,50.237637 
	C26.033598,50.294514 30.552588,50.093872 35.071575,49.893234 
z"/>
<path fill="#DCEBFD" opacity="1.000000" stroke="none" 
	d="
M23.991161,34.847099 
	C17.868313,34.847099 11.745466,34.847099 5.237527,34.847099 
	C5.237527,24.977873 5.237527,15.285178 5.237527,5.267504 
	C20.310440,5.267504 35.349171,5.267504 51.087551,5.267504 
	C51.087551,14.339576 51.186718,23.408817 50.929184,32.467918 
	C50.904316,33.342686 48.752270,34.666077 47.438446,34.884796 
	C45.009830,35.289097 42.470634,35.029125 39.212418,34.971371 
	C36.856236,33.573448 35.265141,32.250019 33.736546,30.978579 
	C35.463715,29.021296 36.496834,27.850534 37.822826,26.347881 
	C33.209095,26.347881 29.212420,26.347881 25.535557,26.347881 
	C24.973291,29.442175 24.482227,32.144638 23.991161,34.847099 
M40.081455,15.001826 
	C35.571262,15.001826 31.061068,15.001826 26.550875,15.001826 
	C26.594328,15.507728 26.637781,16.013630 26.681234,16.519531 
	C32.240654,16.519531 37.800072,16.519531 43.359489,16.519531 
	C43.409859,16.211393 43.460228,15.903255 43.510593,15.595116 
	C42.660797,15.398756 41.811001,15.202396 40.081455,15.001826 
M17.154625,18.709053 
	C17.154625,19.632093 17.154625,20.555134 17.154625,21.478174 
	C17.481760,21.456846 17.808897,21.435520 18.136032,21.414192 
	C18.005459,20.346584 17.874886,19.278975 17.154625,18.709053 
z"/>
<path fill="#E27C48" opacity="1.000000" stroke="none" 
	d="
M24.282616,35.061253 
	C24.482227,32.144638 24.973291,29.442175 25.535557,26.347881 
	C29.212420,26.347881 33.209095,26.347881 37.822826,26.347881 
	C36.496834,27.850534 35.463715,29.021296 33.736546,30.978579 
	C35.265141,32.250019 36.856236,33.573448 38.761421,35.031738 
	C39.389824,35.911777 39.704140,36.656948 40.091560,37.700790 
	C38.768665,39.030914 37.372669,40.062366 35.785160,41.235321 
	C32.993359,37.577995 29.589487,37.157925 25.363762,38.879921 
	C24.834179,37.646152 24.704123,36.460777 24.282616,35.061253 
z"/>
<path fill="#BFDAFD" opacity="1.000000" stroke="none" 
	d="
M33.722805,43.885452 
	C34.062714,44.493996 34.023285,44.934414 33.458069,45.694740 
	C29.345242,46.016083 25.758200,46.017517 22.171158,46.018955 
	C22.111269,45.582901 22.051380,45.146843 21.944317,44.382450 
	C25.712584,43.941849 29.528025,43.829590 33.722805,43.885452 
z"/>
<path fill="#DAE9FD" opacity="1.000000" stroke="none" 
	d="
M22.022209,46.340611 
	C25.758200,46.017517 29.345242,46.016083 33.379250,46.017448 
	C34.220119,47.074924 34.614029,48.129604 35.039757,49.538757 
	C30.552588,50.093872 26.033598,50.294514 21.218693,50.194427 
	C21.239603,48.816555 21.556433,47.739410 22.022209,46.340611 
z"/>
<path fill="#8EBFFC" opacity="1.000000" stroke="none" 
	d="
M40.521332,15.003931 
	C41.811001,15.202396 42.660797,15.398756 43.510593,15.595116 
	C43.460228,15.903255 43.409859,16.211393 43.359489,16.519531 
	C37.800072,16.519531 32.240654,16.519531 26.681234,16.519531 
	C26.637781,16.013630 26.594328,15.507728 26.550875,15.001826 
	C31.061068,15.001826 35.571262,15.001826 40.521332,15.003931 
z"/>
<path fill="#406785" opacity="1.000000" stroke="none" 
	d="
M17.449469,18.460209 
	C17.874886,19.278975 18.005459,20.346584 18.136032,21.414192 
	C17.808897,21.435520 17.481760,21.456846 17.154625,21.478174 
	C17.154625,20.555134 17.154625,19.632093 17.449469,18.460209 
z"/>
</svg>